<svg width="16" height="16" viewBox="0 0 16 16" fill="none" xmlns="http://www.w3.org/2000/svg">
    <path
        d="M7.88571 6.85714V9.6H12.5714C12.3429 10.7429 11.2 13.0286 8 13.0286C5.25714 13.0286 3.08571 10.7429 3.08571 8C3.08571 5.25714 5.37143 2.97143 8 2.97143C9.6 2.97143 10.6286 3.65714 11.2 4.22857L13.3714 2.17143C12 0.8 10.1714 0 8 0C3.54286 0 0 3.54286 0 8C0 12.4571 3.54286 16 8 16C12.5714 16 15.6571 12.8 15.6571 8.22857C15.6571 7.65714 15.6571 7.31429 15.5429 6.85714H7.88571Z"
        fill="#FF2896" />
</svg>