<svg width="20" height="16" viewBox="0 0 20 16" fill="none" xmlns="http://www.w3.org/2000/svg">
    <path
        d="M19.6923 1.84615C18.9538 2.21538 18.2154 2.33846 17.3538 2.46154C18.2154 1.96923 18.8308 1.23077 19.0769 0.246154C18.3385 0.738462 17.4769 0.984615 16.4923 1.23077C15.7538 0.492308 14.6462 0 13.5385 0C11.4462 0 9.6 1.84615 9.6 4.06154C9.6 4.43077 9.6 4.67692 9.72308 4.92308C6.4 4.8 3.32308 3.2 1.35385 0.738461C0.984615 1.35385 0.861538 1.96923 0.861538 2.83077C0.861538 4.18462 1.6 5.41538 2.70769 6.15385C2.09231 6.15385 1.47692 5.90769 0.861538 5.66154C0.861538 7.63077 2.21538 9.23077 4.06154 9.6C3.69231 9.72308 3.32308 9.72308 2.95385 9.72308C2.70769 9.72308 2.46154 9.72308 2.21538 9.6C2.70769 11.2 4.18462 12.4308 6.03077 12.4308C4.67692 13.5385 2.95385 14.1538 0.984615 14.1538C0.615385 14.1538 0.369231 14.1538 0 14.1538C1.84615 15.2615 3.93846 16 6.15385 16C13.5385 16 17.6 9.84615 17.6 4.55385C17.6 4.43077 17.6 4.18462 17.6 4.06154C18.4615 3.44615 19.2 2.70769 19.6923 1.84615Z"
        fill="#FF2896" />
</svg>